<svg viewBox="0 0 100 100" width="512" height="512" xmlns="http://www.w3.org/2000/svg">
    <rect width="100" height="100" rx="20" fill="#09090b" />
    <!-- Rays -->
    <path d="M50 15V25M25 30L32 37M75 30L68 37" stroke="#FBBF24" stroke-width="6" stroke-linecap="round" />

    <!-- Bulb Outline -->
    <path d="M50 95C35 95 22 82 22 65C22 52 30 40 42 36C45 35 48 32 48 28V28C48 25 52 25 52 28V28C52 32 55 35 58 36C70 40 78 52 78 65C78 82 65 95 50 95Z" stroke="#8B5CF6" stroke-width="4" fill="none" />
    <path d="M40 95H60M42 102H58M45 109H55" stroke="#8B5CF6" stroke-width="4" stroke-linecap="round" />

    <!-- Brain inside -->
    <path
        d="M50 45C44 45 40 49 40 54C40 55 40.5 56 41 57C39 58 38 61 38 63C38 66 40 68 43 68C43 71 45 74 49 74C50 74 51 73.5 52 73C53 74 55 74 56 74C60 74 62 71 62 68C65 68 67 66 67 63C67 61 66 58 64 57C64.5 56 65 55 65 54C65 49 61 45 55 45H50Z"
        fill="#FBBF24"
    />
    <path d="M52 45V74" stroke="#D97706" stroke-width="1" stroke-linecap="round" />
</svg>
